<?xml version="1.0" standalone="no"?>
<!DOCTYPE svg PUBLIC "-//W3C//DTD SVG 20010904//EN"
 "http://www.w3.org/TR/2001/REC-SVG-20010904/DTD/svg10.dtd">
<svg version="1.0" xmlns="http://www.w3.org/2000/svg"
 width="200.000000pt" height="200.000000pt" viewBox="0 0 200.000000 200.000000"
 preserveAspectRatio="xMidYMid meet">
<metadata>
Created by potrace 1.15, written by Peter Selinger 2001-2017
</metadata>
<g transform="translate(0.000000,200.000000) scale(0.100000,-0.100000)"
fill="#000000" stroke="none">
<path d="M945 1875 l-25 -24 0 -437 0 -438 -108 106 c-59 59 -119 109 -134
113 -48 12 -97 -28 -98 -79 0 -26 29 -59 194 -225 177 -177 197 -194 227 -193
29 1 55 23 226 194 164 165 193 198 193 224 -1 51 -50 91 -98 79 -15 -4 -75
-54 -134 -113 l-108 -106 0 438 0 437 -25 24 c-15 16 -36 25 -55 25 -19 0 -40
-9 -55 -25z"/>
<path d="M242 700 c-22 -20 -22 -26 -22 -290 l0 -269 26 -20 c26 -21 33 -21
754 -21 721 0 728 0 754 21 l26 20 0 268 c0 267 0 268 -23 289 -25 23 -66 28
-97 12 -32 -17 -40 -66 -40 -261 l0 -189 -620 0 -620 0 0 189 c0 195 -8 244
-40 261 -30 16 -75 11 -98 -10z"/>
</g>
</svg>
