<?xml version="1.0" standalone="no"?>
<!DOCTYPE svg PUBLIC "-//W3C//DTD SVG 20010904//EN"
 "http://www.w3.org/TR/2001/REC-SVG-20010904/DTD/svg10.dtd">
<svg version="1.0" xmlns="http://www.w3.org/2000/svg"
 width="980.000000pt" height="734.000000pt" viewBox="0 0 980.000000 734.000000"
 preserveAspectRatio="xMidYMid meet">
<metadata>
Created by potrace 1.15, written by Peter Selinger 2001-2017
</metadata>
<g transform="translate(0.000000,734.000000) scale(0.100000,-0.100000)"
fill="#000000" stroke="none">
<path d="M9610 7300 c-147 -45 -530 -181 -1450 -515 -465 -169 -1898 -687
-3185 -1152 -2762 -997 -3690 -1334 -4070 -1476 -567 -213 -811 -317 -873
-375 -28 -26 -32 -37 -32 -79 0 -113 28 -153 188 -271 301 -222 1236 -862
1306 -893 22 -10 58 6 343 151 1018 521 4519 2354 5741 3007 211 113 385 203
387 201 5 -5 -1794 -1352 -3903 -2923 l-1543 -1150 5 -810 c4 -445 10 -834 15
-864 13 -87 85 -138 154 -110 60 25 282 165 764 482 264 174 487 317 493 317
7 0 143 -89 303 -197 693 -468 846 -568 915 -601 64 -30 80 -34 132 -30 73 5
98 22 165 110 57 76 292 450 550 878 385 637 1121 1853 2300 3795 1325 2184
1485 2452 1485 2494 0 20 -33 41 -63 40 -18 0 -75 -13 -127 -29z"/>
</g>
</svg>
