<?xml version="1.0" standalone="no"?>
<!DOCTYPE svg PUBLIC "-//W3C//DTD SVG 20010904//EN"
 "http://www.w3.org/TR/2001/REC-SVG-20010904/DTD/svg10.dtd">
<svg version="1.0" xmlns="http://www.w3.org/2000/svg"
 width="512.000000pt" height="512.000000pt" viewBox="0 0 512.000000 512.000000"
 preserveAspectRatio="xMidYMid meet">
<metadata>
Created by potrace 1.15, written by Peter Selinger 2001-2017
</metadata>
<g transform="translate(0.000000,512.000000) scale(0.100000,-0.100000)"
fill="#000000" stroke="none">
<path d="M203 4958 c-174 -172 -196 -198 -191 -231 3 -19 32 5 192 163 103
102 192 193 197 203 8 14 5 17 -17 17 -21 0 -60 -33 -181 -152z"/>
<path d="M303 4858 c-140 -139 -264 -265 -275 -281 -10 -15 -18 -37 -16 -50 3
-18 49 23 292 263 158 157 292 293 297 303 8 14 5 17 -17 17 -22 0 -75 -47
-281 -252z"/>
<path d="M402 4758 c-194 -194 -362 -365 -373 -381 -11 -15 -19 -37 -17 -50 4
-18 67 40 392 363 213 212 392 393 397 403 8 14 5 17 -18 17 -22 0 -89 -62
-381 -352z"/>
<path d="M502 4658 c-249 -249 -462 -465 -473 -481 -11 -15 -19 -37 -17 -50 4
-18 84 57 492 463 268 267 492 493 497 503 8 14 5 17 -18 17 -22 0 -104 -76
-481 -452z"/>
<path d="M602 4558 c-304 -304 -562 -565 -573 -581 -11 -15 -19 -37 -17 -50 4
-18 101 75 592 563 323 322 592 593 597 603 8 14 5 17 -18 17 -23 0 -118 -91
-581 -552z"/>
<path d="M702 4458 c-359 -359 -662 -665 -673 -681 -11 -15 -19 -37 -17 -50 4
-18 118 92 692 663 378 377 692 693 697 703 8 14 5 17 -18 17 -23 0 -133 -106
-681 -652z"/>
<path d="M802 4358 c-414 -414 -762 -765 -773 -781 -11 -15 -19 -37 -17 -50 4
-18 136 109 792 763 433 432 792 793 797 803 8 14 5 17 -18 17 -23 0 -148
-120 -781 -752z"/>
<path d="M1677 5032 c-45 -43 -109 -96 -142 -118 -87 -56 -207 -175 -262 -257
-34 -52 -218 -243 -655 -682 -505 -507 -608 -615 -608 -638 0 -15 3 -27 7 -27
4 0 264 255 577 568 313 312 565 558 561 547 -4 -11 -15 -50 -24 -88 l-17 -68
-552 -552 c-458 -458 -552 -557 -552 -580 0 -15 3 -27 7 -27 4 0 251 243 549
541 l541 541 -2 -67 -2 -67 -547 -547 c-453 -453 -546 -551 -546 -574 0 -15 3
-27 7 -27 4 0 251 244 549 541 427 427 543 538 547 523 3 -11 9 -34 12 -53 7
-33 5 -35 -554 -595 -465 -466 -561 -566 -561 -589 0 -15 3 -27 7 -27 4 0 260
252 569 561 l561 560 18 -46 17 -47 -586 -587 c-490 -491 -586 -591 -586 -614
0 -23 3 -26 18 -18 9 5 278 271 596 590 l580 580 24 -41 24 -40 -621 -622
c-516 -517 -621 -626 -621 -649 0 -15 3 -27 7 -27 4 0 290 282 635 627 l628
628 29 -35 30 -35 -665 -665 c-553 -554 -664 -670 -664 -693 0 -15 3 -27 7
-27 4 0 310 302 680 672 l672 671 34 -30 35 -30 -267 -265 c-146 -145 -300
-291 -341 -323 -108 -85 -240 -216 -328 -325 -42 -52 -170 -190 -284 -306
-165 -168 -208 -216 -208 -237 0 -15 3 -27 7 -27 3 0 69 62 146 138 77 75 133
126 124 112 -9 -14 -34 -68 -57 -120 -37 -83 -53 -106 -131 -187 -65 -67 -89
-99 -89 -118 0 -14 3 -25 6 -25 3 0 34 27 68 60 l63 60 -25 -87 c-20 -71 -33
-97 -69 -137 -26 -29 -43 -58 -43 -73 0 -26 8 -25 49 11 l24 21 -6 -25 c-3
-14 -9 -47 -13 -75 -4 -28 -17 -64 -30 -81 -13 -17 -24 -41 -24 -53 0 -19 3
-20 20 -11 19 10 20 8 20 -52 0 -47 -5 -69 -20 -88 -11 -14 -20 -35 -20 -48 0
-19 3 -21 19 -12 23 12 27 8 36 -47 6 -38 3 -46 -25 -82 -20 -25 -30 -47 -28
-62 3 -24 4 -23 42 12 l39 36 22 -41 22 -41 -63 -68 c-43 -45 -64 -75 -64 -92
0 -14 3 -25 6 -25 3 0 39 32 79 70 l72 71 28 -36 27 -36 -106 -109 c-79 -81
-106 -115 -106 -134 0 -14 3 -26 7 -26 3 0 59 52 124 116 l117 116 36 -28 35
-28 -159 -162 c-125 -126 -160 -167 -160 -188 0 -14 3 -26 7 -26 4 0 84 77
179 171 l172 171 40 -23 41 -24 -219 -221 c-177 -178 -220 -226 -220 -248 0
-22 3 -25 18 -17 9 5 118 111 241 234 l224 225 44 -21 43 -21 -260 -261 c-143
-143 -260 -264 -260 -268 0 -4 12 -7 27 -7 21 0 76 49 283 255 l257 256 46
-18 47 -19 -221 -219 c-121 -121 -225 -228 -230 -238 -8 -14 -5 -17 17 -17 22
0 71 44 255 226 l228 227 45 -13 c25 -7 46 -15 46 -19 0 -3 -86 -92 -191 -196
-104 -105 -195 -198 -200 -207 -8 -15 -5 -18 17 -18 22 0 68 40 233 204 l206
204 49 -15 49 -14 -182 -183 c-99 -100 -181 -185 -181 -189 0 -4 12 -7 26 -7
21 0 66 39 213 183 l186 184 53 -11 52 -11 -155 -155 c-86 -85 -161 -163 -166
-172 -8 -15 -5 -18 17 -18 21 0 62 35 194 166 l168 166 57 -7 57 -8 -151 -151
c-83 -84 -151 -156 -151 -159 0 -4 12 -7 26 -7 21 0 61 34 183 153 l156 153
53 -4 c28 -2 52 -7 52 -11 0 -3 -57 -62 -126 -131 -145 -145 -157 -160 -118
-160 20 0 59 32 174 145 l147 146 57 -7 57 -7 -130 -132 c-72 -72 -131 -135
-131 -138 0 -4 12 -7 26 -7 20 0 59 32 169 141 l143 141 57 -7 57 -7 -126
-128 c-69 -70 -126 -130 -126 -133 0 -4 12 -7 26 -7 20 0 58 31 163 135 l137
135 64 0 64 0 -127 -128 c-70 -71 -127 -132 -127 -135 0 -4 12 -7 26 -7 20 0
59 32 168 140 l142 140 64 0 64 0 -132 -133 c-73 -74 -132 -137 -132 -140 0
-4 12 -7 26 -7 20 0 59 33 173 145 l146 144 73 9 73 8 -146 -146 c-80 -81
-145 -150 -145 -153 0 -4 12 -7 26 -7 21 0 62 35 188 159 155 153 163 159 211
166 28 3 61 9 75 12 18 4 -21 -41 -137 -159 -90 -90 -163 -167 -163 -171 0 -4
12 -7 26 -7 21 0 65 38 208 179 l181 180 65 14 c35 9 68 13 73 10 5 -3 -73
-87 -172 -187 -100 -100 -181 -185 -181 -189 0 -4 12 -7 26 -7 21 0 64 37 198
170 l172 170 34 -29 35 -29 -132 -135 c-73 -73 -133 -137 -133 -140 0 -4 12
-7 26 -7 20 0 56 30 154 126 l129 126 40 -24 40 -24 -85 -85 c-104 -102 -115
-119 -79 -119 19 0 51 24 118 88 l92 89 43 -19 44 -20 -61 -63 c-34 -35 -61
-66 -61 -69 0 -3 11 -6 25 -6 16 0 46 20 87 58 l63 58 48 -14 48 -13 -35 -40
c-20 -21 -36 -41 -36 -44 0 -18 53 1 88 31 40 34 44 35 97 29 l55 -7 -21 -27
-21 -26 22 -3 c11 -2 36 8 55 22 28 21 45 26 95 26 l60 0 -16 -25 c-16 -24
-16 -25 8 -25 13 0 39 13 58 28 25 21 51 31 92 35 31 4 65 10 75 14 12 5 8 -5
-14 -30 -18 -21 -33 -40 -33 -42 0 -3 11 -5 24 -5 16 0 46 20 84 55 33 30 78
62 101 70 22 7 73 30 113 50 l73 37 -97 -100 c-54 -54 -98 -102 -98 -106 0 -3
12 -6 27 -6 22 0 96 69 411 383 211 210 392 394 403 410 11 15 19 37 17 50 -3
19 -18 8 -112 -83 l-108 -105 31 63 c17 34 40 85 52 114 12 31 44 77 80 115
39 42 59 72 59 88 0 14 -2 25 -5 25 -3 0 -24 -17 -47 -37 -23 -21 -39 -31 -36
-22 4 9 9 42 14 75 5 46 14 67 40 98 52 61 45 104 -8 58 -17 -14 -18 -11 -18
47 0 54 4 67 31 101 19 23 29 47 27 60 l-3 23 -31 -26 -32 -27 -7 55 c-6 54
-6 56 34 102 43 48 58 103 23 84 -9 -5 -30 -23 -47 -41 l-30 -31 -16 48 -16
48 63 68 c44 46 64 75 64 93 0 33 -18 23 -90 -50 l-54 -56 -22 42 -22 43 94
97 c69 71 94 104 94 122 0 15 -3 26 -6 26 -4 0 -51 -44 -105 -97 -54 -53 -101
-95 -103 -92 -2 2 -13 20 -25 39 l-20 34 129 132 c100 102 130 138 130 158 0
39 -15 27 -160 -118 -69 -69 -127 -126 -130 -126 -3 0 -16 16 -29 35 l-24 36
171 173 c135 136 172 179 172 200 0 14 -3 26 -7 26 -4 0 -89 -82 -190 -182
l-183 -182 -32 32 -32 32 222 223 c178 179 222 229 222 250 0 15 -3 27 -7 27
-4 0 -112 -104 -239 -232 l-233 -231 -36 28 -37 27 276 277 c224 225 276 283
276 304 0 15 -3 27 -7 27 -4 0 -138 -130 -298 -289 l-290 -289 -39 25 -38 25
336 337 c274 275 336 342 336 364 0 15 -3 27 -7 27 -4 0 -166 -158 -360 -352
l-352 -352 -40 19 c-23 10 -41 21 -41 24 0 3 180 186 400 406 329 330 400 406
400 428 0 15 -3 27 -7 27 -4 0 -197 -189 -429 -421 l-421 -421 -44 13 c-24 7
-46 14 -48 16 -3 2 210 219 472 481 394 395 477 483 477 505 0 15 -3 27 -7 27
-4 0 -233 -225 -508 -499 l-500 -500 -53 11 -54 11 561 561 c469 470 561 566
561 589 0 23 -3 26 -17 18 -10 -5 -277 -269 -593 -585 l-575 -576 -65 0 -65 0
658 658 c547 547 657 662 657 685 0 15 -3 27 -7 27 -4 0 -318 -310 -698 -689
l-690 -689 -52 -6 c-34 -4 -54 -3 -59 5 -4 7 293 311 750 768 631 631 756 761
756 784 0 15 -3 27 -7 27 -4 0 -352 -344 -773 -765 l-765 -765 -29 36 -29 36
802 802 c674 674 801 806 801 829 0 23 -3 26 -17 18 -10 -5 -378 -370 -818
-810 l-800 -801 -32 32 -33 32 850 851 c711 711 850 855 850 878 0 15 -3 27
-7 27 -4 0 -395 -388 -869 -861 l-862 -862 -36 29 -36 29 905 905 c763 763
905 910 905 933 0 23 -3 26 -17 18 -10 -5 -425 -417 -923 -915 -498 -498 -908
-906 -913 -906 -4 0 -23 10 -42 23 l-34 22 964 965 c814 815 965 970 965 993
0 23 -3 26 -17 18 -10 -5 -452 -444 -983 -975 -531 -531 -969 -966 -975 -966
-5 0 -25 9 -44 21 l-34 21 1026 1027 c861 860 1027 1031 1027 1054 0 15 -3 27
-7 27 -4 0 -477 -469 -1050 -1042 l-1042 -1042 -40 19 c-23 10 -41 21 -41 24
0 3 462 467 1026 1031 564 564 1030 1033 1035 1043 8 14 5 17 -18 17 -23 0
-189 -162 -1068 -1040 -572 -572 -1047 -1040 -1056 -1040 -55 0 -82 -26 -264
-244 -116 -140 -257 -294 -383 -420 l-200 -199 -30 34 -31 34 1429 1430 c787
787 1430 1434 1430 1438 0 4 -12 7 -27 7 -23 0 -253 -225 -1444 -1416 l-1417
-1417 -30 34 -31 34 1374 1375 c756 756 1375 1379 1375 1383 0 4 -12 7 -27 7
-23 0 -245 -217 -1390 -1362 l-1363 -1363 -29 35 -30 35 1320 1320 c725 726
1319 1324 1319 1328 0 4 -12 7 -27 7 -23 0 -149 -122 -761 -732 -644 -643
-731 -726 -707 -678 15 30 36 79 47 110 17 52 53 90 633 670 338 339 615 619
615 623 0 4 -12 7 -27 7 -23 0 -125 -98 -604 -576 l-577 -577 5 69 5 69 499
500 c274 275 499 504 499 508 0 4 -12 7 -27 7 -22 0 -109 -82 -499 -471 l-471
-471 -7 58 -7 58 406 406 c223 223 405 409 405 413 0 4 -12 7 -27 7 -22 0 -96
-69 -410 -382 -210 -210 -384 -380 -386 -377 -2 2 -9 24 -16 48 l-13 44 326
326 c179 180 326 330 326 334 0 4 -12 7 -27 7 -22 0 -84 -57 -333 -305 -168
-168 -308 -305 -311 -305 -3 0 -14 18 -24 41 l-18 40 256 257 c141 142 257
261 257 265 0 4 -12 7 -27 7 -21 0 -74 -47 -268 -240 -132 -132 -244 -240
-247 -240 -4 0 -16 16 -29 36 l-22 36 197 197 c108 108 196 200 196 204 0 4
-12 7 -26 7 -21 0 -66 -39 -213 -185 l-187 -185 -32 33 -32 33 136 134 c156
155 167 170 128 170 -20 0 -57 -30 -163 -134 l-136 -134 -38 26 -38 25 101
102 c55 56 100 105 100 109 0 3 -11 6 -25 6 -19 0 -51 -25 -119 -90 -51 -49
-96 -90 -101 -90 -4 0 -23 10 -42 21 l-34 21 60 63 c34 35 61 66 61 69 0 3
-11 6 -24 6 -16 0 -46 -20 -86 -56 l-60 -56 -45 12 c-25 7 -45 15 -45 17 0 3
14 22 32 42 32 36 32 36 9 39 -15 2 -38 -8 -62 -28 -37 -29 -43 -31 -94 -25
l-54 7 16 24 c15 23 14 24 -8 24 -13 0 -35 -9 -49 -20 -19 -15 -41 -20 -88
-20 -60 0 -62 1 -52 20 9 17 8 20 -11 20 -12 0 -37 -11 -54 -24 -18 -14 -62
-32 -99 -40 -37 -9 -77 -21 -89 -28 -14 -7 -6 6 21 35 23 26 42 49 42 52 0 3
-11 5 -25 5 -18 0 -50 -23 -108 -78z m38 -562 c-148 -148 -271 -268 -273 -266
-5 6 28 128 43 156 8 14 83 93 167 176 166 165 179 173 328 203 3 1 -116 -120
-265 -269z m440 264 c13 -5 -66 -90 -341 -365 -198 -198 -362 -359 -365 -359
-4 0 -9 24 -12 53 l-5 52 311 313 c310 310 312 312 354 312 23 0 49 -3 58 -6z
m132 -39 l37 -16 -409 -409 c-226 -226 -413 -410 -416 -410 -4 0 -14 19 -24
42 l-16 42 383 383 c211 211 389 383 396 383 7 0 29 -7 49 -15z m119 -66 c19
-11 34 -24 34 -27 0 -4 -195 -202 -433 -440 l-433 -433 -27 38 -27 38 422 422
c233 233 425 423 427 423 2 0 19 -9 37 -21z m134 -127 c0 -4 -195 -201 -432
-439 l-433 -432 -35 30 -35 29 440 440 440 441 28 -31 c15 -17 27 -34 27 -38z
m61 -83 l21 -42 -413 -413 -413 -413 -36 21 c-19 12 -37 23 -40 25 -3 3 850
863 857 863 2 0 12 -19 24 -41z m68 -179 c1 -8 -162 -178 -361 -377 l-363
-361 -49 15 -49 15 399 399 399 399 12 -37 c6 -21 12 -45 12 -53z m-257 -473
l-269 -269 -69 -5 -69 -5 335 336 335 336 3 -62 3 -62 -269 -269z m237 146
c-64 -170 -201 -311 -361 -373 -53 -21 -52 -20 157 189 115 116 211 211 212
211 1 0 -2 -12 -8 -27z m-1133 -580 l35 -26 -141 -142 -142 -142 -42 4 c-29 3
-53 -2 -81 -17 -30 -15 5 25 145 165 102 102 186 185 188 185 2 0 19 -12 38
-27z m126 -74 l41 -21 -151 -151 -152 -152 -32 33 -33 32 140 140 c77 77 141
140 143 140 1 0 21 -9 44 -21z m491 -371 l-393 -393 -29 35 -30 35 316 316
c287 288 319 317 366 332 29 10 75 28 102 41 28 14 52 25 55 25 3 1 -172 -176
-387 -391z m-330 308 l27 -11 -180 -180 -181 -180 -29 35 -29 35 162 162 c171
173 162 167 230 139z m197 -35 c0 -3 -99 -105 -220 -226 l-221 -220 -29 35
-29 35 194 195 195 195 55 -3 c30 -2 55 -7 55 -11z m-63 -268 l-288 -288 -29
35 -29 35 242 242 242 243 70 9 c39 4 72 9 75 10 3 0 -125 -128 -283 -286z
m-729 -286 l21 -23 -355 -354 c-381 -380 -383 -382 -272 -186 45 79 78 118
262 305 199 201 287 280 312 281 6 0 20 -10 32 -23z m1780 0 l41 -23 -406
-405 -405 -404 302 365 c246 297 414 490 426 490 1 0 20 -10 42 -23z m127 -82
l30 -24 -915 -916 -915 -916 -50 6 c-27 3 -52 8 -54 11 -7 6 1851 1864 1864
1864 5 0 24 -11 40 -25z m-1823 -18 l26 -34 -450 -449 c-247 -247 -448 -440
-445 -429 3 11 13 49 23 85 l17 65 396 398 c217 218 398 397 401 397 3 0 17
-15 32 -33z m1955 -93 c2 -5 -394 -406 -879 -891 l-883 -882 -58 6 -59 6 908
908 908 908 30 -23 c16 -12 31 -27 33 -32z m-1864 -17 l25 -34 -512 -512 -512
-512 7 72 8 73 473 473 c260 260 476 473 479 473 4 0 18 -15 32 -33z m91 -109
l26 -33 -552 -552 c-304 -303 -555 -550 -560 -547 -4 3 -8 29 -8 57 l0 52 527
527 c291 291 531 528 535 528 3 0 18 -15 32 -32z m83 -100 c11 -13 23 -28 26
-34 3 -5 -248 -264 -557 -573 l-564 -564 -26 39 -26 39 557 557 c307 307 561
558 564 558 3 0 15 -10 26 -22z m1828 -448 c-230 -230 -421 -417 -423 -415 -2
2 1 34 7 71 l10 68 339 339 c332 332 339 338 388 346 27 5 60 9 74 10 20 1
-63 -87 -395 -419z m583 412 c20 -6 -38 -67 -486 -516 -508 -507 -509 -508
-516 -476 -15 79 -34 57 451 542 435 435 460 458 493 457 19 -1 45 -4 58 -7z
m182 -42 c2 0 -44 -49 -104 -109 -90 -90 -113 -108 -127 -100 -10 5 -35 9 -56
9 l-38 0 114 114 114 114 46 -14 c25 -7 48 -14 51 -14z m-3023 -628 l-556
-556 -36 29 -37 28 562 562 563 563 30 -35 30 -35 -556 -556z m2423 625 c0 -1
-122 -124 -270 -272 -278 -277 -287 -283 -214 -145 81 155 224 293 388 375 84
43 96 48 96 42z m603 -199 c-125 -125 -138 -136 -144 -115 -3 13 -12 34 -19
46 -11 22 -5 30 100 136 l113 113 44 -21 44 -21 -138 -138z m64 -136 l-192
-192 -3 62 -3 62 157 157 158 158 37 -27 38 -27 -192 -193z m-2467 185 l24
-28 -539 -539 c-535 -535 -539 -539 -564 -525 -14 8 -33 19 -41 24 -12 9 92
118 535 561 302 302 552 546 555 542 3 -4 16 -20 30 -35z m2543 -309 c-179
-179 -223 -218 -245 -218 -26 0 -28 3 -28 37 0 36 12 49 212 250 l212 213 33
-32 33 -32 -217 -218z m-1517 170 c-23 -46 -50 -101 -58 -123 -13 -30 -148
-171 -535 -558 l-519 -518 -58 7 -58 7 633 633 c349 349 635 634 635 634 1 0
-17 -37 -40 -82z m-916 2 c0 -3 -231 -236 -512 -517 l-513 -512 -45 20 -44 20
529 530 530 529 27 -32 c15 -18 28 -35 28 -38z m2577 -227 l-162 -163 -65 0
-65 0 199 199 200 200 27 -37 28 -37 -162 -162z m-2964 -365 l-488 -488 -49
16 -48 17 503 503 503 504 34 -32 33 -32 -488 -488z m2110 310 l-108 -108 -65
0 -65 0 170 170 170 170 3 -62 3 -62 -108 -108z m-1929 -329 l-510 -510 -52
13 -52 13 485 485 484 484 43 -2 c24 -1 57 5 73 12 17 8 32 15 35 15 3 1 -225
-229 -506 -510z m2901 301 l-115 -115 -29 18 c-16 9 -37 17 -47 17 -12 0 30
48 121 140 l140 140 22 -43 22 -42 -114 -115z m149 13 l14 -48 -106 -108 -107
-107 -16 47 -16 48 106 108 c58 59 107 107 108 107 1 0 9 -21 17 -47z m-2045
-49 l-12 -69 -396 -397 -396 -398 -51 0 c-28 0 -54 3 -58 7 -4 4 201 215 456
470 254 254 464 461 466 459 1 -2 -2 -35 -9 -72z m2080 -139 c1 -40 -3 -44
-456 -497 -430 -430 -460 -458 -493 -458 -100 1 -123 -28 426 521 540 540 522
525 523 434z m-2391 -432 l-293 -293 -65 0 -65 0 355 355 355 355 3 -62 3 -62
-293 -293z m874 291 c4 -6 -42 -59 -102 -119 l-108 -108 -15 49 -15 49 111
113 112 113 5 -43 c3 -24 9 -48 12 -54z m1509 -61 l-11 -58 -333 -333 c-182
-184 -341 -337 -353 -342 -11 -4 -47 -11 -80 -15 l-59 -7 420 421 c247 248
421 415 423 407 2 -8 -2 -41 -7 -73z m-1414 -17 l33 -11 -137 -137 -138 -138
-22 43 -22 42 112 113 c78 78 117 110 127 106 8 -4 30 -12 47 -18z m-658 -71
c1 -26 -25 -55 -201 -232 l-203 -203 -65 0 -65 0 260 260 c249 249 260 259
266 233 4 -16 7 -41 8 -58z m691 -140 c-107 -107 -197 -191 -200 -187 -4 4
-17 20 -29 36 l-22 30 158 158 158 158 65 0 65 0 -195 -195z m340 167 c0 -22
-40 -67 -220 -247 l-220 -220 -32 33 -33 32 215 215 c204 204 217 215 252 215
35 0 38 -2 38 -28z m495 -132 l-160 -160 -3 62 -3 62 98 98 98 98 65 0 65 0
-160 -160z m-657 -257 l-163 -163 -38 27 -38 27 198 198 198 198 3 -62 3 -62
-163 -163z m1147 250 c-89 -214 -296 -417 -503 -494 -16 -6 81 98 243 261 148
148 271 270 273 270 1 0 -5 -17 -13 -37z m-1981 -25 l13 -46 -116 -116 -117
-116 -69 -6 -70 -6 170 170 c93 94 170 170 172 168 2 -1 9 -23 17 -48z m57
-147 l17 -39 -32 -31 c-25 -24 -47 -34 -92 -41 -32 -6 -66 -10 -74 -10 -8 0
23 38 70 85 46 46 86 82 89 80 2 -3 12 -22 22 -44z m960 -59 c13 -21 8 -28
-101 -136 l-115 -114 -44 20 -44 20 139 139 c125 125 139 137 145 116 3 -12
12 -33 20 -45z m137 -83 c7 -2 -36 -52 -95 -111 l-108 -106 -49 15 -49 15 107
107 108 108 36 -12 c21 -7 43 -14 50 -16z"/>
<path d="M4796 350 c-174 -173 -322 -323 -327 -332 -8 -15 -5 -18 17 -18 23 0
80 52 312 282 156 156 293 295 303 311 11 15 19 37 17 50 -4 18 -54 -28 -322
-293z"/>
<path d="M4896 250 c-119 -118 -222 -223 -227 -232 -8 -15 -5 -18 17 -18 21 0
65 37 211 183 205 202 226 227 221 260 -3 19 -37 -11 -222 -193z"/>
<path d="M4996 150 c-136 -133 -149 -150 -111 -150 18 0 49 23 111 82 102 98
127 130 122 161 -3 19 -19 7 -122 -93z"/>
</g>
</svg>
